<svg width="42" height="42" viewBox="0 0 42 42" fill="none" xmlns="http://www.w3.org/2000/svg">
<path d="M33.25 6.99999H25.935C25.5767 5.97701 24.9093 5.09066 24.0252 4.46357C23.1411 3.83648 22.0839 3.49963 21 3.49963C19.9161 3.49963 18.8589 3.83648 17.9748 4.46357C17.0907 5.09066 16.4233 5.97701 16.065 6.99999H8.75C7.82259 7.00276 6.93396 7.3724 6.27819 8.02817C5.62241 8.68395 5.25277 9.57258 5.25 10.5V35C5.25277 35.9274 5.62241 36.816 6.27819 37.4718C6.93396 38.1276 7.82259 38.4972 8.75 38.5H33.25C34.1774 38.4972 35.066 38.1276 35.7218 37.4718C36.3776 36.816 36.7472 35.9274 36.75 35V10.5C36.7472 9.57258 36.3776 8.68395 35.7218 8.02817C35.066 7.3724 34.1774 7.00276 33.25 6.99999ZM21 6.99999C21.3461 6.99999 21.6845 7.10262 21.9722 7.29492C22.26 7.48721 22.4843 7.76052 22.6168 8.08029C22.7492 8.40006 22.7839 8.75193 22.7164 9.0914C22.6488 9.43086 22.4822 9.74268 22.2374 9.98742C21.9927 10.2322 21.6809 10.3988 21.3414 10.4664C21.0019 10.5339 20.6501 10.4992 20.3303 10.3668C20.0105 10.2343 19.7372 10.01 19.5449 9.72224C19.3526 9.43445 19.25 9.09611 19.25 8.74999C19.2514 8.28628 19.4362 7.84197 19.7641 7.51408C20.092 7.18619 20.5363 7.00137 21 6.99999ZM17.5 15.75L22.3825 20.6395L26.7925 16.2295L24.5 14H31.5V21L29.267 18.7057L22.386 25.592L17.5 20.7025L12.9745 25.2245L10.5 22.75L17.5 15.75ZM33.25 33.25H8.75V29.75H33.25V33.25Z" fill="white"/>
</svg>
