<svg width="33" height="33" viewBox="0 0 33 33" fill="none" xmlns="http://www.w3.org/2000/svg">
<mask id="mask0_14_147" style="mask-type:luminance" maskUnits="userSpaceOnUse" x="1" y="2" width="31" height="29">
<path d="M12.5703 29.6801C10.2961 29.0009 8.23648 27.7447 6.59176 26.0336C7.12091 25.406 7.45077 24.6348 7.53912 23.8186C7.62748 23.0025 7.47032 22.1785 7.08775 21.4522C6.70518 20.7259 6.1146 20.1303 5.39158 19.7415C4.66856 19.3528 3.84599 19.1886 3.02913 19.2699C2.84262 18.3585 2.7491 17.4304 2.75001 16.5C2.75001 15.0631 2.97001 13.6771 3.37976 12.375H3.43751C4.13859 12.3752 4.82816 12.1968 5.44111 11.8565C6.05406 11.5162 6.57016 11.0252 6.94068 10.4301C7.3112 9.83489 7.52392 9.1551 7.55874 8.45489C7.59356 7.75467 7.44934 7.05713 7.13969 6.42813C8.75211 4.9279 10.7013 3.83694 12.8233 3.24707C13.1686 3.92522 13.6949 4.49461 14.3438 4.89222C14.9927 5.28984 15.739 5.5002 16.5 5.50001C17.261 5.5002 18.0073 5.28984 18.6562 4.89222C19.3051 4.49461 19.8314 3.92522 20.1768 3.24707C22.2987 3.83694 24.2479 4.9279 25.8603 6.42813C25.5484 7.06153 25.4043 7.76439 25.4418 8.46943C25.4793 9.17446 25.6971 9.85808 26.0744 10.4548C26.4517 11.0516 26.9759 11.5415 27.5967 11.8777C28.2176 12.2139 28.9143 12.3852 29.6203 12.375C30.0388 13.71 30.2512 15.101 30.25 16.5C30.25 17.4488 30.1538 18.3755 29.9709 19.2706C29.154 19.1892 28.3315 19.3534 27.6084 19.7422C26.8854 20.131 26.2948 20.7266 25.9123 21.4529C25.5297 22.1792 25.3725 23.0032 25.4609 23.8193C25.5492 24.6354 25.8791 25.4067 26.4083 26.0343C24.7635 27.7451 22.7038 29.0011 20.4298 29.6801C20.1627 28.8477 19.6382 28.1216 18.932 27.6065C18.2257 27.0914 17.3742 26.8138 16.5 26.8138C15.6259 26.8138 14.7743 27.0914 14.068 27.6065C13.3618 28.1216 12.8373 28.8477 12.5703 29.6801Z" fill="white" stroke="white" stroke-width="2" stroke-linejoin="round"/>
<path d="M16.5 21.3125C17.132 21.3125 17.7578 21.188 18.3417 20.9462C18.9255 20.7043 19.4561 20.3498 19.903 19.903C20.3498 19.4561 20.7043 18.9255 20.9462 18.3417C21.188 17.7578 21.3125 17.132 21.3125 16.5C21.3125 15.868 21.188 15.2422 20.9462 14.6583C20.7043 14.0745 20.3498 13.5439 19.903 13.097C19.4561 12.6502 18.9255 12.2957 18.3417 12.0538C17.7578 11.812 17.132 11.6875 16.5 11.6875C15.2236 11.6875 13.9996 12.1945 13.097 13.097C12.1945 13.9996 11.6875 15.2236 11.6875 16.5C11.6875 17.7764 12.1945 19.0004 13.097 19.903C13.9996 20.8055 15.2236 21.3125 16.5 21.3125Z" fill="black" stroke="black" stroke-width="2" stroke-linejoin="round"/>
</mask>
<g mask="url(#mask0_14_147)">
<path d="M0 0H33V33H0V0Z" fill="white"/>
</g>
</svg>
