<svg width="54" height="54" viewBox="0 0 54 54" fill="none" xmlns="http://www.w3.org/2000/svg">
<path d="M19.4348 25.2403C19.421 24.4549 19.5639 23.6746 19.8552 22.945C20.1465 22.2154 20.5803 21.5513 21.1314 20.9914C21.6824 20.4315 22.3395 19.9871 23.0643 19.6842C23.7892 19.3813 24.5671 19.226 25.3527 19.2273C26.1382 19.2286 26.9157 19.3865 27.6395 19.6919C28.3632 19.9972 29.0189 20.4438 29.568 21.0056C30.1172 21.5673 30.5488 22.2329 30.8377 22.9635C31.1265 23.694 31.2668 24.4748 31.2503 25.2602C31.2178 26.8072 30.5798 28.2797 29.4733 29.3614C28.3668 30.4431 26.8802 31.0475 25.3328 31.0449C23.7855 31.0423 22.3009 30.4329 21.198 29.3475C20.0952 28.2621 19.4621 26.7874 19.4348 25.2403Z" fill="#F7F7F7"/>
<path d="M5.09619 26.4756C5.11615 14.5984 14.7598 4.98712 26.637 5.00708C38.5142 5.02703 48.1255 14.6707 48.1056 26.5479C48.0856 38.4251 38.442 48.0364 26.5648 48.0165C14.6875 47.9965 5.07624 38.3528 5.09619 26.4756ZM25.3591 16.033C23.9132 16.0305 22.487 16.3683 21.1958 17.0189C19.9046 17.6695 18.7846 18.6148 17.9262 19.7783C17.0678 20.9418 16.4952 22.2909 16.2546 23.7166C16.0141 25.1423 16.1123 26.6047 16.5413 27.9854C16.9704 29.3661 17.7182 30.6266 18.7245 31.6649C19.7307 32.7032 20.9671 33.4902 22.3337 33.9623C23.7003 34.4344 25.1589 34.5784 26.5914 34.3826C28.024 34.1869 29.3904 33.6568 30.5802 32.8353L34.2354 36.5138C34.3875 36.6723 34.5696 36.7988 34.7712 36.8862C34.9727 36.9735 35.1896 37.0198 35.4093 37.0223C35.6289 37.0249 35.8468 36.9837 36.0504 36.9012C36.2539 36.8186 36.439 36.6964 36.5948 36.5416C36.7506 36.3867 36.874 36.2024 36.9578 35.9994C37.0416 35.7964 37.0841 35.5787 37.0829 35.359C37.0817 35.1394 37.0367 34.9222 36.9506 34.7201C36.8646 34.518 36.7391 34.3351 36.5816 34.182L32.9199 30.4969C33.8766 29.115 34.4373 27.4978 34.5412 25.8203C34.6452 24.1427 34.2884 22.4687 33.5096 20.9793C32.7308 19.4898 31.5596 18.2417 30.1226 17.3699C28.6856 16.4981 27.0398 16.0358 25.3591 16.033Z" fill="#F7F7F7"/>
</svg>
