<svg width="50" height="50" viewBox="0 0 50 50" fill="none" xmlns="http://www.w3.org/2000/svg">
<path d="M8.4786 16.975C9.29467 16.975 9.83931 16.5143 9.83931 15.5732V8.81427C9.83931 7.93481 9.21074 7.36963 8.31163 7.36963C7.55806 7.36963 7.09735 7.62052 6.57413 7.97677L5.10985 9.00177C4.66967 9.29463 4.44021 9.56695 4.44021 10.0062C4.44021 10.5509 4.87949 10.9268 5.35985 10.9268C5.61163 10.9268 5.75806 10.8848 6.11431 10.6339L7.07681 9.9857H7.09735V15.5723C7.09735 16.5143 7.66253 16.975 8.4786 16.975ZM15.7402 14.442H44.3884C45.3509 14.442 46.0831 13.7098 46.0831 12.7678C46.0831 11.8053 45.3509 11.0723 44.3884 11.0723H15.7402C14.7982 11.0723 14.0661 11.8045 14.0661 12.7678C14.0661 13.7089 14.7982 14.442 15.7402 14.442ZM5.10985 29.5937H10.4875C11.0732 29.5937 11.492 29.1955 11.492 28.6098C11.492 27.9821 11.0732 27.5848 10.4875 27.5848H7.49556V27.5223L9.21074 26.1402C10.6545 24.9687 11.1991 24.2991 11.1991 23.0643C11.1991 21.3902 9.79735 20.2607 7.53663 20.2607C5.54913 20.2607 4.08396 21.3062 4.08396 22.6455C4.08396 23.3152 4.52324 23.6714 5.23574 23.6714C5.7161 23.6714 6.05092 23.525 6.32324 23.0437C6.6161 22.5411 7.01342 22.2687 7.5786 22.2687C8.20628 22.2687 8.62503 22.667 8.62503 23.2527C8.62503 23.7553 8.37413 24.1946 7.30717 25.0527L4.54467 27.3116C4.14735 27.6473 3.97949 28.0241 3.97949 28.4839C3.97949 29.133 4.41878 29.5937 5.10985 29.5937ZM15.7402 27.1018H44.3884C44.6117 27.1044 44.8332 27.0624 45.04 26.9781C45.2468 26.8939 45.4347 26.7692 45.5926 26.6113C45.7505 26.4534 45.8752 26.2655 45.9594 26.0587C46.0437 25.852 46.0857 25.6304 46.0831 25.4071C46.0831 24.4652 45.3509 23.733 44.3884 23.733H15.7402C14.7982 23.733 14.0661 24.4652 14.0661 25.4071C14.0661 26.3491 14.7982 27.1018 15.7402 27.1018ZM7.60003 42.6312C10.0688 42.6312 11.5554 41.5223 11.5554 39.7652C11.5554 38.6134 10.7384 37.8187 9.29467 37.6928V37.6303C10.3616 37.4419 11.1786 36.7303 11.1786 35.5161C11.1786 33.9268 9.62949 33.0473 7.5786 33.0473C5.92592 33.0473 4.14735 33.8214 4.14735 35.2027C4.14735 35.7884 4.56521 36.2071 5.21431 36.2071C5.67413 36.2071 5.88396 36.0187 6.17681 35.7045C6.65806 35.1812 7.05538 35.0143 7.55806 35.0143C8.20628 35.0143 8.68753 35.3277 8.68753 35.9553C8.68753 36.542 8.20628 36.8348 7.34824 36.8348H7.09824C6.51163 36.8348 6.13485 37.1277 6.13485 37.7348C6.13485 38.3 6.49021 38.6348 7.09735 38.6348H7.36967C8.31163 38.6348 8.81342 38.9482 8.81342 39.5973C8.81342 40.1625 8.29021 40.5803 7.59913 40.5803C6.84646 40.5803 6.32324 40.1625 5.92592 39.7643C5.67413 39.5339 5.46521 39.367 5.08842 39.367C4.39824 39.367 3.91699 39.7643 3.91699 40.4134C3.91699 41.8571 5.88396 42.6312 7.60003 42.6312ZM15.7402 39.7437H44.3884C45.3509 39.7437 46.0831 39.0116 46.0831 38.0696C46.0831 37.1071 45.3509 36.3741 44.3884 36.3741H15.7402C14.7982 36.3741 14.0661 37.1062 14.0661 38.0696C14.0661 39.0107 14.7982 39.7437 15.7402 39.7437Z" fill="white"/>
</svg>
