<svg width="24" height="26" viewBox="0 0 24 26" fill="none" xmlns="http://www.w3.org/2000/svg">
<path d="M23.9925 18.9037C23.9426 19.4217 23.7621 19.9175 23.4677 20.3417C23.1883 20.7531 22.8146 21.0892 22.3789 21.3212C21.9433 21.5531 21.4587 21.6738 20.9669 21.673H17.1325C17.0677 22.0243 16.9717 22.3661 16.8445 22.6984C16.5803 23.3535 16.1935 23.9502 15.7055 24.4552C15.212 24.9587 14.6246 25.3569 13.9777 25.6264C13.3613 25.8776 12.7027 26.0044 12.0387 25.9999H11.8954C11.2155 26.0007 10.5426 25.8604 9.91801 25.5874C9.28098 25.3192 8.70217 24.9261 8.21465 24.4304C7.72713 23.9347 7.34047 23.3461 7.07675 22.6984C6.94269 22.3689 6.84608 22.0248 6.78879 21.673H3.08235C2.6 21.7111 2.11585 21.6277 1.67273 21.4302C1.22962 21.2327 0.841207 20.9273 0.541859 20.5408C0.254971 20.0725 0.0764148 19.5441 0.0196586 18.9954C-0.0370976 18.4467 0.029428 17.8921 0.214218 17.3734C0.497064 16.603 0.884858 15.8769 1.36608 15.2158C1.91465 14.5373 2.28067 13.7257 2.42835 12.8604C2.42835 8.99934 2.42835 7.70712 4.49658 5.20467C5.17858 4.37592 6.02628 3.7043 6.98332 3.23446L8.01872 2.72954C8.06283 2.70509 8.09888 2.66797 8.12239 2.62283C8.16994 2.5762 8.20213 2.51574 8.21454 2.44976C8.36983 1.5634 8.83479 0.763905 9.52382 0.198459C9.69394 0.0696017 9.90041 0 10.1125 0C10.3247 0 10.5312 0.0696017 10.7013 0.198459C10.8755 0.324071 11.006 0.502527 11.0743 0.708248C11.1426 0.913968 11.1451 1.13639 11.0814 1.34363C11.0814 1.34363 9.56349 6.16374 12.3907 9.07872C15.2191 11.9937 19.9456 9.25179 19.9981 9.22577C20.1451 9.1384 20.3123 9.09236 20.4825 9.09236C20.6528 9.09236 20.8199 9.1384 20.9669 9.22577C21.114 9.31238 21.2361 9.43665 21.3212 9.5862C21.4063 9.73575 21.4514 9.90536 21.452 10.0781V12.9137C21.6286 13.8377 22.0292 14.7018 22.6166 15.4292C23.0851 16.0668 23.4677 16.7657 23.7557 17.5061C23.9477 17.9447 24.0283 18.4262 23.9912 18.9037" fill="#E0E0E0"/>
<path d="M16.2277 7.92054C17.172 7.92054 18.0776 7.53911 18.7453 6.86018C19.4131 6.18124 19.7882 5.2604 19.7882 4.30024C19.7882 3.34008 19.4131 2.41925 18.7453 1.74031C18.0776 1.06137 17.172 0.67995 16.2277 0.67995C15.2833 0.67995 14.3777 1.06137 13.71 1.74031C13.0422 2.41925 12.6671 3.34008 12.6671 4.30024C12.6671 5.2604 13.0422 6.18124 13.71 6.86018C14.3777 7.53911 15.2833 7.92054 16.2277 7.92054Z" fill="#E50000"/>
</svg>
