<svg width="35" height="35" viewBox="0 0 35 35" fill="none" xmlns="http://www.w3.org/2000/svg">
<path fill-rule="evenodd" clip-rule="evenodd" d="M35 17.5C35 22.1413 33.1563 26.5925 29.8744 29.8744C26.5925 33.1563 22.1413 35 17.5 35C12.8587 35 8.40752 33.1563 5.12563 29.8744C1.84374 26.5925 0 22.1413 0 17.5C0 12.8587 1.84374 8.40752 5.12563 5.12563C8.40752 1.84374 12.8587 0 17.5 0C22.1413 0 26.5925 1.84374 29.8744 5.12563C33.1563 8.40752 35 12.8587 35 17.5ZM14.5833 8.75C14.5833 7.97645 14.8906 7.23459 15.4376 6.68761C15.9846 6.14062 16.7265 5.83333 17.5 5.83333C18.2735 5.83333 19.0154 6.14062 19.5624 6.68761C20.1094 7.23459 20.4167 7.97645 20.4167 8.75V17.5C20.4167 18.2735 20.1094 19.0154 19.5624 19.5624C19.0154 20.1094 18.2735 20.4167 17.5 20.4167C16.7265 20.4167 15.9846 20.1094 15.4376 19.5624C14.8906 19.0154 14.5833 18.2735 14.5833 17.5V8.75ZM17.5 23.3333C16.7265 23.3333 15.9846 23.6406 15.4376 24.1876C14.8906 24.7346 14.5833 25.4765 14.5833 26.25C14.5833 27.0235 14.8906 27.7654 15.4376 28.3124C15.9846 28.8594 16.7265 29.1667 17.5 29.1667C18.2735 29.1667 19.0154 28.8594 19.5624 28.3124C20.1094 27.7654 20.4167 27.0235 20.4167 26.25C20.4167 25.4765 20.1094 24.7346 19.5624 24.1876C19.0154 23.6406 18.2735 23.3333 17.5 23.3333Z" fill="white"/>
</svg>
