<svg width="40" height="40" viewBox="0 0 40 40" fill="none" xmlns="http://www.w3.org/2000/svg">
<path d="M19.9999 16.6667C21.9183 16.6667 23.3333 15.2533 23.3333 13.3333C23.3333 11.4133 21.9183 10 19.9999 10C18.0833 10 16.6666 11.4133 16.6666 13.3333C16.6666 15.2533 18.0833 16.6667 19.9999 16.6667ZM19.9999 18.3333C16.3183 18.3333 13.3333 21.02 13.3333 24.3333V24.9767H26.6666V24.3333C26.6666 21.02 23.6816 18.3333 19.9999 18.3333Z" fill="white"/>
<path d="M31.6667 3.33331H8.33333C6.495 3.33331 5 4.82831 5 6.66665V28.3333C5 30.1716 6.495 31.6666 8.33333 31.6666H15L20 36.6666L25 31.6666H31.6667C33.505 31.6666 35 30.1716 35 28.3333V6.66665C35 4.82831 33.505 3.33331 31.6667 3.33331ZM23.3333 28.3333L20 31.6666L16.6667 28.3333H8.33333V6.66665H31.6667L31.67 28.3333H23.3333Z" fill="white"/>
</svg>
