<svg width="37" height="37" viewBox="0 0 37 37" fill="none" xmlns="http://www.w3.org/2000/svg">
<path d="M18.5 1.69507C9.21879 1.69507 1.69507 9.21879 1.69507 18.5C1.69507 27.7812 9.21879 35.3049 18.5 35.3049C27.7812 35.3049 35.3049 27.7812 35.3049 18.5C35.3049 9.21879 27.7812 1.69507 18.5 1.69507ZM28.1963 17.3068C27.4004 18.2222 26.3533 18.8839 25.1848 19.2099C24.0164 19.5359 22.7779 19.5118 21.623 19.1406L13.3131 28.6981C12.8857 29.18 12.2853 29.4737 11.6425 29.5151C10.9998 29.5566 10.3666 29.3426 9.88084 28.9196C9.39507 28.4966 9.09598 27.8989 9.04865 27.2566C9.00132 26.6142 9.20957 25.9791 9.6281 25.4895L17.9508 15.9227C17.4422 14.8626 17.2464 13.6794 17.3864 12.5119C17.5264 11.3444 17.9963 10.241 18.7411 9.33116C19.486 8.42129 20.4747 7.74264 21.5916 7.37479C22.7084 7.00695 23.907 6.96516 25.0467 7.25432L21.8612 10.9682L22.9018 13.9976L26.0503 14.6104L29.2416 10.8873C29.6825 11.9485 29.8184 13.1117 29.6342 14.2461C29.4499 15.3804 28.9528 16.4408 28.1986 17.3079L28.1963 17.3068Z" fill="black"/>
</svg>
