<svg width="27" height="21" viewBox="0 0 27 21" fill="none" xmlns="http://www.w3.org/2000/svg">
<path d="M25.7582 15.3111C25.8679 14.7328 25.8679 14.1422 25.7582 13.5639L26.8467 12.9527C26.9733 12.883 27.0282 12.7395 26.986 12.6041C26.7033 11.7182 26.2181 10.9143 25.5852 10.2498C25.4882 10.1473 25.332 10.1227 25.2055 10.1924L24.1169 10.8035C23.657 10.4221 23.1296 10.1268 22.56 9.92988V8.70762C22.56 8.56816 22.4588 8.44512 22.3195 8.41641C21.3787 8.21133 20.4209 8.21953 19.5264 8.41641C19.3872 8.44512 19.2859 8.56816 19.2859 8.70762V9.92988C18.7163 10.1268 18.1889 10.4221 17.7291 10.8035L16.6405 10.1924C16.5181 10.1227 16.3578 10.1473 16.2608 10.2498C15.6279 10.9143 15.1427 11.7182 14.86 12.6041C14.8178 12.7395 14.8769 12.883 14.9992 12.9527L16.0878 13.5639C15.9781 14.1422 15.9781 14.7328 16.0878 15.3111L14.9992 15.9223C14.8727 15.992 14.8178 16.1355 14.86 16.2709C15.1427 17.1568 15.6279 17.9566 16.2608 18.6252C16.3578 18.7277 16.5139 18.7523 16.6405 18.6826L17.7291 18.0715C18.1889 18.4529 18.7163 18.7482 19.2859 18.9451V20.1674C19.2859 20.3068 19.3872 20.4299 19.5264 20.4586C20.4673 20.6637 21.4251 20.6555 22.3195 20.4586C22.4588 20.4299 22.56 20.3068 22.56 20.1674V18.9451C23.1296 18.7482 23.657 18.4529 24.1169 18.0715L25.2055 18.6826C25.3278 18.7523 25.4882 18.7277 25.5852 18.6252C26.2181 17.9607 26.7033 17.1568 26.986 16.2709C27.0282 16.1355 26.9691 15.992 26.8467 15.9223L25.7582 15.3111ZM20.9272 16.4268C19.7965 16.4268 18.8809 15.5326 18.8809 14.4375C18.8809 13.3424 19.8007 12.4482 20.9272 12.4482C22.0537 12.4482 22.9735 13.3424 22.9735 14.4375C22.9735 15.5326 22.058 16.4268 20.9272 16.4268ZM9.451 10.5C12.434 10.5 14.8516 8.1498 14.8516 5.25C14.8516 2.3502 12.434 0 9.451 0C6.46803 0 4.05043 2.3502 4.05043 5.25C4.05043 8.1498 6.46803 10.5 9.451 10.5ZM17.94 19.79C17.843 19.7408 17.7459 19.6834 17.6531 19.6301L17.3198 19.8188C17.0666 19.9582 16.7797 20.0361 16.4928 20.0361C16.0329 20.0361 15.5899 19.8475 15.2735 19.5193C14.5014 18.7072 13.9107 17.7187 13.5774 16.6646C13.3453 15.9387 13.6575 15.1717 14.3326 14.7902L14.6659 14.6016C14.6617 14.4949 14.6617 14.3883 14.6659 14.2816L14.3326 14.093C13.6575 13.7156 13.3453 12.9445 13.5774 12.2186C13.6153 12.0996 13.6702 11.9807 13.7124 11.8617C13.5521 11.8494 13.3959 11.8125 13.2314 11.8125H12.5268C11.5901 12.2309 10.548 12.4688 9.451 12.4688C8.35401 12.4688 7.31608 12.2309 6.3752 11.8125H5.6706C2.53996 11.8125 0 14.2816 0 17.325V19.0312C0 20.1182 0.907127 21 2.02521 21H16.8768C17.3029 21 17.6995 20.8687 18.0244 20.6514C17.9738 20.4955 17.94 20.3355 17.94 20.1674V19.79Z" fill="#E0E0E0"/>
</svg>
