<svg width="44" height="45" viewBox="0 0 44 45" fill="none" xmlns="http://www.w3.org/2000/svg">
<path d="M14.4348 21.2403C14.421 20.4549 14.5639 19.6746 14.8552 18.945C15.1465 18.2154 15.5803 17.5513 16.1314 16.9914C16.6824 16.4315 17.3395 15.9871 18.0643 15.6842C18.7892 15.3813 19.5671 15.226 20.3527 15.2273C21.1382 15.2286 21.9157 15.3865 22.6395 15.6919C23.3632 15.9972 24.0189 16.4438 24.568 17.0056C25.1172 17.5673 25.5488 18.2329 25.8377 18.9635C26.1265 19.694 26.2668 20.4748 26.2503 21.2602C26.2178 22.8072 25.5798 24.2797 24.4733 25.3614C23.3668 26.4431 21.8802 27.0475 20.3328 27.0449C18.7855 27.0423 17.3009 26.4329 16.198 25.3475C15.0952 24.2621 14.4621 22.7874 14.4348 21.2403Z" fill="#F7F7F7"/>
<path d="M0.0961941 22.4756C0.116149 10.5984 9.75981 0.987122 21.637 1.00708C33.5142 1.02703 43.1255 10.6707 43.1056 22.5479C43.0856 34.4251 33.442 44.0364 21.5648 44.0165C9.68755 43.9965 0.0762392 34.3528 0.0961941 22.4756ZM20.3591 12.033C18.9132 12.0305 17.487 12.3683 16.1958 13.0189C14.9046 13.6695 13.7846 14.6148 12.9262 15.7783C12.0678 16.9418 11.4952 18.2909 11.2546 19.7166C11.0141 21.1423 11.1123 22.6047 11.5413 23.9854C11.9704 25.3661 12.7182 26.6266 13.7245 27.6649C14.7307 28.7032 15.9671 29.4902 17.3337 29.9623C18.7003 30.4344 20.1589 30.5784 21.5914 30.3826C23.024 30.1869 24.3904 29.6568 25.5802 28.8353L29.2354 32.5138C29.3875 32.6723 29.5696 32.7988 29.7712 32.8862C29.9727 32.9735 30.1896 33.0198 30.4093 33.0223C30.6289 33.0249 30.8468 32.9837 31.0504 32.9012C31.2539 32.8186 31.439 32.6964 31.5948 32.5416C31.7506 32.3867 31.874 32.2024 31.9578 31.9994C32.0416 31.7964 32.0841 31.5787 32.0829 31.359C32.0817 31.1394 32.0367 30.9222 31.9506 30.7201C31.8646 30.518 31.7391 30.3351 31.5816 30.182L27.9199 26.4969C28.8766 25.115 29.4373 23.4978 29.5412 21.8203C29.6452 20.1427 29.2884 18.4687 28.5096 16.9793C27.7308 15.4898 26.5596 14.2417 25.1226 13.3699C23.6856 12.4981 22.0398 12.0358 20.3591 12.033Z" fill="#F7F7F7"/>
</svg>
